<?xml version="1.0" encoding="utf-8"?>
<!-- Generator: Adobe Illustrator 25.4.1, SVG Export Plug-In . SVG Version: 6.00 Build 0)  -->
<svg version="1.1" xmlns="http://www.w3.org/2000/svg" xmlns:xlink="http://www.w3.org/1999/xlink" x="0px" y="0px"
	 viewBox="0 0 631.82 143.9" style="enable-background:new 0 0 631.82 143.9;" xml:space="preserve">
<g id="Layer_1">
	<path d="M38.16,78.72c-3.18,0-6.09-0.38-8.74-1.15c-2.65-0.76-4.88-1.6-6.71-2.52c-1.82-0.91-3.15-1.54-3.97-1.9
		c-0.77,0.59-1.43,1.12-1.99,1.59c-0.56,0.47-1.25,1.12-2.07,1.94c-0.59,0.59-1.15,0.75-1.68,0.49s-0.79-0.72-0.79-1.37V58.6
		c0-0.71,0.4-1.12,1.19-1.24c0.79-0.12,1.28,0.09,1.46,0.62c1.12,3.3,2.82,6.24,5.12,8.83c2.29,2.59,5.04,4.6,8.25,6.04
		c3.21,1.44,6.66,2.16,10.37,2.16c3.06,0,5.54-0.62,7.46-1.85c1.91-1.24,3.34-2.81,4.28-4.72c0.94-1.91,1.41-3.81,1.41-5.69
		c0-2.53-0.71-4.57-2.12-6.13c-1.41-1.56-3.27-2.82-5.56-3.79c-2.29-0.97-4.84-1.81-7.63-2.52c-2.79-0.71-5.57-1.47-8.34-2.29
		c-2.77-0.82-5.29-1.9-7.59-3.22c-2.29-1.32-4.15-3.09-5.56-5.29c-1.41-2.21-2.12-5.01-2.12-8.43c0-4.06,0.98-7.46,2.96-10.19
		c1.97-2.74,4.6-4.81,7.9-6.22c3.29-1.41,6.85-2.12,10.68-2.12c2.47,0,4.84,0.3,7.1,0.88c2.26,0.59,4.31,1.28,6.13,2.07
		c1.82,0.79,3.23,1.52,4.24,2.16c0.71-0.65,1.31-1.19,1.81-1.63c0.5-0.44,0.9-0.78,1.19-1.01c0.59-0.47,1.12-0.57,1.59-0.31
		c0.47,0.27,0.71,0.78,0.71,1.54v15.09c0,0.76-0.37,1.24-1.1,1.41c-0.74,0.18-1.25-0.12-1.54-0.88c-1.29-2.88-2.93-5.56-4.9-8.03
		c-1.97-2.47-4.24-4.47-6.79-6c-2.56-1.53-5.37-2.29-8.43-2.29c-2.53,0-4.77,0.54-6.71,1.63c-1.94,1.09-3.47,2.51-4.59,4.28
		c-1.12,1.76-1.68,3.74-1.68,5.91c0,2.47,0.72,4.44,2.16,5.91c1.44,1.47,3.34,2.65,5.69,3.53c2.35,0.88,4.96,1.65,7.81,2.29
		c2.85,0.65,5.69,1.37,8.52,2.16c2.82,0.79,5.41,1.87,7.77,3.22c2.35,1.35,4.25,3.16,5.69,5.43c1.44,2.27,2.16,5.22,2.16,8.87
		c0,4.18-1,7.77-3,10.77c-2,3-4.74,5.28-8.21,6.84C46.51,77.94,42.57,78.72,38.16,78.72z"/>
	<path d="M87.93,78.72c-6.71,0-11.96-1.82-15.75-5.47c-3.79-3.65-5.69-8.88-5.69-15.71c0-4.29,0.85-8.15,2.56-11.56
		c1.71-3.41,4.13-6.12,7.28-8.12c3.15-2,6.81-3,10.99-3c3.18,0,5.94,0.62,8.3,1.85c2.35,1.24,4.29,2.85,5.82,4.85
		c1.53,2,2.68,4.16,3.44,6.49c0.76,2.33,1.15,4.6,1.15,6.84c0,0.94-0.59,1.41-1.76,1.41H76.9c-0.12,4.47,0.28,7.97,1.19,10.5
		c0.91,2.53,2.28,4.29,4.1,5.29c1.82,1,4.03,1.5,6.62,1.5c3,0,5.69-0.65,8.08-1.94c2.38-1.29,4.34-2.91,5.87-4.85
		c0.65-0.76,1.38-0.88,2.21-0.35c0.82,0.53,0.94,1.24,0.35,2.12c-1.18,1.77-2.52,3.41-4.02,4.94c-1.5,1.53-3.32,2.78-5.47,3.75
		C93.68,78.23,91.05,78.72,87.93,78.72z M77.08,52.86h18.36c0.12-2.82-0.07-5.35-0.57-7.59c-0.5-2.23-1.35-4-2.56-5.29
		c-1.21-1.29-2.93-1.94-5.16-1.94c-2.82,0-5.03,1.34-6.62,4.02C78.93,44.73,77.78,48.33,77.08,52.86z"/>
	<path d="M126.32,78.72c-3.83,0-6.99-0.88-9.49-2.65c-2.5-1.76-3.75-4.71-3.75-8.82c0-3.47,1.07-6.34,3.22-8.6
		c2.15-2.26,5.16-3.94,9.05-5.03c3.88-1.09,8.41-1.6,13.59-1.54v-3.44c0-3.18-0.56-5.69-1.68-7.54c-1.12-1.85-2.91-2.78-5.38-2.78
		c-2.29,0-4.03,0.43-5.21,1.28c-1.18,0.85-1.47,1.96-0.88,3.31c0.94,2,0.91,3.78-0.09,5.34c-1,1.56-2.71,2.34-5.12,2.34
		c-1.47,0-2.71-0.49-3.71-1.46c-1-0.97-1.5-2.34-1.5-4.1c0-1.76,0.74-3.41,2.21-4.94c1.47-1.53,3.49-2.78,6.04-3.75
		c2.56-0.97,5.46-1.46,8.69-1.46c5.35,0,9.38,1.18,12.09,3.53c2.71,2.35,4.06,5.59,4.06,9.71V66.8c0,2.35,0.25,3.87,0.75,4.54
		c0.5,0.68,1.13,1.01,1.9,1.01c0.59,0,1.1-0.1,1.54-0.31c0.44-0.21,0.78-0.43,1.01-0.66c0.65-0.65,1.29-0.62,1.94,0.09
		c0.29,0.3,0.41,0.62,0.35,0.97c-0.06,0.35-0.21,0.71-0.44,1.06c-0.82,1.35-1.84,2.49-3.04,3.4c-1.21,0.91-2.66,1.37-4.37,1.37
		c-2.18,0-4.01-0.56-5.52-1.68c-1.5-1.12-2.54-2.85-3.13-5.21c-1.06,1.94-2.57,3.65-4.54,5.12
		C132.95,77.98,130.08,78.72,126.32,78.72z M130.73,73.42c1.71,0,3.18-0.49,4.41-1.46s2.18-2.13,2.82-3.49
		c0.65-1.35,0.97-2.65,0.97-3.88v-9.44c-4.65-0.12-8.38,0.62-11.21,2.21c-2.82,1.59-4.24,4.38-4.24,8.38c0,2.29,0.44,3.99,1.32,5.07
		c0.88,1.09,1.9,1.79,3.04,2.12C129.01,73.26,129.97,73.42,130.73,73.42z"/>
	<path d="M156.15,77.66c-0.88,0-1.32-0.5-1.32-1.5c0-0.94,0.44-1.41,1.32-1.41c2,0,3.37-0.44,4.1-1.32c0.73-0.88,1.1-2.38,1.1-4.5
		V43.51c0-1.18-0.09-2.1-0.26-2.78c-0.18-0.68-0.65-1.07-1.41-1.19c-0.41-0.12-1.03-0.22-1.85-0.31c-0.83-0.09-1.44-0.16-1.85-0.22
		c-0.82-0.12-1.24-0.59-1.24-1.41c0-0.94,0.44-1.41,1.32-1.41c0.18,0,0.85-0.03,2.03-0.09c1.18-0.06,2.5-0.1,3.97-0.13
		c1.47-0.03,2.82-0.04,4.06-0.04s2.03,0,2.38,0c1.47,0.06,2.21,0.82,2.21,2.29v4.94c0.82-1.35,1.93-2.66,3.31-3.93
		c1.38-1.26,3.04-2.31,4.99-3.13c1.94-0.82,4.09-1.24,6.44-1.24c2.18,0,4.18,0.41,6,1.24c1.82,0.83,3.29,2.21,4.41,4.15
		c1.12,1.94,1.68,4.62,1.68,8.03v20.47c0,2.24,0.34,3.79,1.01,4.68c0.68,0.88,1.75,1.32,3.22,1.32c0.88,0,1.32,0.47,1.32,1.41
		c0,1-0.44,1.5-1.32,1.5c-0.41,0-1.15-0.03-2.21-0.09c-1.06-0.06-2.21-0.1-3.44-0.13c-1.24-0.03-2.38-0.04-3.44-0.04
		c-1,0-2.12,0.01-3.35,0.04c-1.24,0.03-2.37,0.07-3.4,0.13c-1.03,0.06-1.78,0.09-2.25,0.09c-0.88,0-1.32-0.5-1.32-1.5
		c0-0.94,0.44-1.41,1.32-1.41c1.82,0,3-0.44,3.53-1.32c0.53-0.88,0.79-2.38,0.79-4.5V49.51c0-3.35-0.62-5.72-1.85-7.1
		c-1.24-1.38-2.97-2.07-5.21-2.07c-1.65,0-3.25,0.52-4.81,1.54c-1.56,1.03-2.82,2.4-3.79,4.1c-0.97,1.71-1.46,3.59-1.46,5.65v17.12
		c0,2.24,0.32,3.79,0.97,4.68c0.65,0.88,1.62,1.32,2.91,1.32c0.94,0,1.41,0.47,1.41,1.41c0,1-0.47,1.5-1.41,1.5
		c-0.65,0-1.87-0.04-3.66-0.13c-1.79-0.09-3.46-0.13-4.99-0.13c-1,0-2.21,0.01-3.62,0.04c-1.41,0.03-2.71,0.07-3.88,0.13
		C157.44,77.63,156.62,77.66,156.15,77.66z"/>
	<path d="M233.72,77.66c-0.77,0-1.15-0.47-1.15-1.41c0-0.76,0.38-1.15,1.15-1.15c2.47,0,4.47-0.9,6-2.69
		c1.53-1.79,2.29-4.84,2.29-9.13V22.15c0-2.12-0.49-3.66-1.46-4.63s-2.66-1.46-5.07-1.46c-0.77,0-1.15-0.41-1.15-1.24
		c0-0.82,0.38-1.24,1.15-1.24c0.53,0,2.35,0.03,5.47,0.09c3.12,0.06,6.82,0.09,11.12,0.09c2,0,3.26,0.76,3.79,2.29
		c0.12,0.29,0.46,1.24,1.01,2.82c0.56,1.59,1.26,3.59,2.12,6c0.85,2.41,1.78,5.04,2.78,7.9c1,2.85,2.01,5.69,3.04,8.52
		c1.03,2.82,1.99,5.46,2.87,7.9c0.88,2.44,1.62,4.49,2.21,6.13c0.59,1.65,0.94,2.65,1.06,3c0.23-0.53,0.74-1.84,1.5-3.93
		c0.76-2.09,1.68-4.65,2.74-7.68c1.06-3.03,2.18-6.19,3.35-9.49c1.18-3.29,2.28-6.44,3.31-9.44c1.03-3,1.9-5.54,2.6-7.63
		c0.71-2.09,1.12-3.34,1.24-3.75c0.53-1.77,1.82-2.65,3.88-2.65c4.29,0,7.88-0.03,10.77-0.09c2.88-0.06,4.53-0.09,4.94-0.09
		c0.76,0,1.15,0.41,1.15,1.24c0,0.82-0.38,1.24-1.15,1.24c-2.18,0-3.69,0.46-4.54,1.37c-0.85,0.91-1.28,2.22-1.28,3.93v48.1
		c0,1.88,0.35,3.3,1.06,4.24c0.71,0.94,2.12,1.41,4.24,1.41c0.76,0,1.15,0.38,1.15,1.15c0,0.94-0.38,1.41-1.15,1.41
		c-0.59,0-1.75-0.04-3.49-0.13c-1.74-0.09-3.96-0.13-6.66-0.13c-1.71,0-3.49,0.01-5.34,0.04c-1.85,0.03-3.46,0.07-4.81,0.13
		c-1.35,0.06-2.24,0.09-2.65,0.09c-0.88,0-1.32-0.47-1.32-1.41c0-0.76,0.44-1.15,1.32-1.15c2.71,0,4.56-0.43,5.56-1.28
		c1-0.85,1.5-2.31,1.5-4.37V17.56c-3.83,11.12-7.05,20.39-9.66,27.8c-2.62,7.41-4.71,13.28-6.27,17.61s-3.01,8.31-4.37,11.96
		c-0.18,0.47-0.34,0.75-0.49,0.84c-0.15,0.09-0.37,0.13-0.66,0.13c-0.47,0-0.83-0.26-1.06-0.79c-0.06-0.06-0.41-0.96-1.06-2.69
		c-0.65-1.73-1.52-4.01-2.6-6.84c-1.09-2.82-2.31-5.97-3.66-9.44c-1.35-3.47-2.72-7.02-4.1-10.63c-1.38-3.62-2.72-7.09-4.02-10.41
		c-1.29-3.32-2.44-6.27-3.44-8.83c-1-2.56-1.74-4.49-2.21-5.78v42.71c0,4.47,0.88,7.58,2.65,9.31c1.76,1.74,3.82,2.6,6.18,2.6
		c0.88,0,1.32,0.38,1.32,1.15c0,0.94-0.44,1.41-1.32,1.41c-0.59,0-1.78-0.04-3.57-0.13c-1.79-0.09-3.99-0.13-6.57-0.13
		c-3.06,0-5.37,0.04-6.93,0.13C235.47,77.61,234.36,77.66,233.72,77.66z"/>
	<path d="M331.67,78.72c-3.83,0-7.34-0.71-10.55-2.12c-3.21-1.41-5.78-3.69-7.72-6.84c-1.94-3.15-2.91-7.25-2.91-12.31
		c0-4.24,0.88-8.06,2.65-11.47c1.76-3.41,4.32-6.12,7.68-8.12c3.35-2,7.41-3,12.18-3c2.59,0,5,0.49,7.24,1.46
		c2.24,0.97,4.06,2.28,5.47,3.93c1.41,1.65,2.12,3.56,2.12,5.74c0,1.65-0.54,3.04-1.63,4.19c-1.09,1.15-2.49,1.72-4.19,1.72
		c-1.71,0-2.99-0.43-3.84-1.28c-0.85-0.85-1.25-1.96-1.19-3.31c0.06-0.82,0.25-1.49,0.57-1.99c0.32-0.5,0.66-1.04,1.01-1.63
		c0.35-0.59,0.53-1.32,0.53-2.21c0-0.65-0.47-1.35-1.41-2.12c-0.94-0.76-2.29-1.15-4.06-1.15c-1.88,0-3.81,0.6-5.78,1.81
		c-1.97,1.21-3.62,3.21-4.94,6c-1.32,2.79-1.99,6.6-1.99,11.43c0,5.53,1.21,9.65,3.62,12.35c2.41,2.71,5.41,4.06,9,4.06
		c2.35,0,4.4-0.44,6.13-1.32c1.73-0.88,3.21-1.99,4.41-3.31c1.21-1.32,2.07-2.63,2.6-3.93c0.41-0.94,1.09-1.21,2.03-0.79
		c0.94,0.35,1.21,1.03,0.79,2.03c-0.65,1.71-1.63,3.5-2.96,5.38c-1.32,1.88-3.16,3.49-5.52,4.81
		C338.67,78.06,335.56,78.72,331.67,78.72z"/>
	<path d="M355.76,77.66c-0.76,0-1.15-0.38-1.15-1.15c0-0.94,0.38-1.41,1.15-1.41c2.06,0,3.68-0.37,4.85-1.1
		c1.18-0.74,2.23-2.13,3.18-4.19c0.47-0.94,1.16-2.53,2.07-4.76c0.91-2.24,1.97-4.91,3.18-8.03c1.21-3.12,2.48-6.44,3.84-9.97
		c1.35-3.53,2.71-7.06,4.06-10.59c1.35-3.53,2.6-6.81,3.75-9.84c1.15-3.03,2.12-5.63,2.91-7.81s1.34-3.65,1.63-4.41
		c0.29-0.76,0.63-1.26,1.01-1.5c0.38-0.23,1.04-0.35,1.99-0.35c0.94,0,1.62,0.12,2.03,0.35c0.41,0.24,0.76,0.74,1.06,1.5
		c0.47,1.18,1.22,3.09,2.25,5.74s2.22,5.71,3.57,9.18c1.35,3.47,2.76,7.1,4.24,10.9c1.47,3.79,2.9,7.49,4.28,11.08
		c1.38,3.59,2.63,6.84,3.75,9.75c1.12,2.91,2,5.16,2.65,6.75c1.06,2.71,2.19,4.6,3.4,5.69c1.21,1.09,2.37,1.63,3.49,1.63
		c0.76,0,1.15,0.47,1.15,1.41c0,0.77-0.38,1.15-1.15,1.15c-0.59,0-1.8-0.01-3.62-0.04c-1.82-0.03-4.27-0.04-7.33-0.04
		c-2.53,0-4.94,0.01-7.24,0.04c-2.29,0.03-3.74,0.04-4.32,0.04c-0.76,0-1.15-0.38-1.15-1.15c0-0.94,0.38-1.41,1.15-1.41
		c1.88,0,3.19-0.31,3.93-0.93c0.73-0.62,1.1-1.35,1.1-2.21c0-0.85-0.15-1.57-0.44-2.16c-0.06-0.12-0.26-0.71-0.62-1.76
		c-0.35-1.06-0.78-2.34-1.28-3.84c-0.5-1.5-1.02-3-1.54-4.5c-0.53-1.5-0.97-2.78-1.32-3.84h-23.83c-0.35,1.18-0.81,2.66-1.37,4.46
		c-0.56,1.79-1.06,3.54-1.5,5.25c-0.44,1.71-0.66,3.09-0.66,4.15c0,2.18,0.54,3.62,1.63,4.32c1.09,0.71,2.6,1.06,4.54,1.06
		c0.76,0,1.15,0.47,1.15,1.41c0,0.77-0.38,1.15-1.15,1.15c-0.59,0-1.69-0.01-3.31-0.04c-1.62-0.03-3.72-0.04-6.31-0.04
		c-2.29,0-4.32,0.01-6.09,0.04C357.62,77.65,356.41,77.66,355.76,77.66z M373.59,52.95h21.53L384.8,23.83L373.59,52.95z"/>
	<path d="M425.3,77.66c-0.88,0-1.32-0.5-1.32-1.5c0-0.94,0.44-1.41,1.32-1.41c2,0,3.37-0.44,4.1-1.32c0.73-0.88,1.1-2.38,1.1-4.5
		V43.51c0-1.18-0.09-2.1-0.26-2.78c-0.18-0.68-0.65-1.07-1.41-1.19c-0.41-0.12-1.03-0.22-1.85-0.31c-0.83-0.09-1.44-0.16-1.85-0.22
		c-0.82-0.12-1.24-0.59-1.24-1.41c0-0.94,0.44-1.41,1.32-1.41c0.18,0,0.85-0.03,2.03-0.09c1.18-0.06,2.5-0.1,3.97-0.13
		c1.47-0.03,2.82-0.04,4.06-0.04s2.03,0,2.38,0c1.47,0.06,2.21,0.82,2.21,2.29v4.94c0.82-1.35,1.93-2.66,3.31-3.93
		c1.38-1.26,3.04-2.31,4.99-3.13c1.94-0.82,4.09-1.24,6.44-1.24c2.18,0,4.18,0.41,6,1.24c1.82,0.83,3.29,2.21,4.41,4.15
		c1.12,1.94,1.68,4.62,1.68,8.03v20.47c0,2.24,0.34,3.79,1.01,4.68c0.68,0.88,1.75,1.32,3.22,1.32c0.88,0,1.32,0.47,1.32,1.41
		c0,1-0.44,1.5-1.32,1.5c-0.41,0-1.15-0.03-2.21-0.09c-1.06-0.06-2.21-0.1-3.44-0.13c-1.24-0.03-2.38-0.04-3.44-0.04
		c-1,0-2.12,0.01-3.35,0.04c-1.24,0.03-2.37,0.07-3.4,0.13c-1.03,0.06-1.78,0.09-2.25,0.09c-0.88,0-1.32-0.5-1.32-1.5
		c0-0.94,0.44-1.41,1.32-1.41c1.82,0,3-0.44,3.53-1.32c0.53-0.88,0.79-2.38,0.79-4.5V49.51c0-3.35-0.62-5.72-1.85-7.1
		c-1.24-1.38-2.97-2.07-5.21-2.07c-1.65,0-3.25,0.52-4.81,1.54c-1.56,1.03-2.82,2.4-3.79,4.1c-0.97,1.71-1.46,3.59-1.46,5.65v17.12
		c0,2.24,0.32,3.79,0.97,4.68c0.65,0.88,1.62,1.32,2.91,1.32c0.94,0,1.41,0.47,1.41,1.41c0,1-0.47,1.5-1.41,1.5
		c-0.65,0-1.87-0.04-3.66-0.13c-1.79-0.09-3.46-0.13-4.99-0.13c-1,0-2.21,0.01-3.62,0.04c-1.41,0.03-2.71,0.07-3.88,0.13
		C426.6,77.63,425.77,77.66,425.3,77.66z"/>
	<path d="M491.67,78.72c-3.83,0-6.99-0.88-9.49-2.65c-2.5-1.76-3.75-4.71-3.75-8.82c0-3.47,1.07-6.34,3.22-8.6
		c2.15-2.26,5.16-3.94,9.05-5.03c3.88-1.09,8.41-1.6,13.59-1.54v-3.44c0-3.18-0.56-5.69-1.68-7.54c-1.12-1.85-2.91-2.78-5.38-2.78
		c-2.29,0-4.03,0.43-5.21,1.28c-1.18,0.85-1.47,1.96-0.88,3.31c0.94,2,0.91,3.78-0.09,5.34c-1,1.56-2.71,2.34-5.12,2.34
		c-1.47,0-2.71-0.49-3.71-1.46c-1-0.97-1.5-2.34-1.5-4.1c0-1.76,0.74-3.41,2.21-4.94c1.47-1.53,3.49-2.78,6.04-3.75
		c2.56-0.97,5.46-1.46,8.69-1.46c5.35,0,9.38,1.18,12.09,3.53c2.71,2.35,4.06,5.59,4.06,9.71V66.8c0,2.35,0.25,3.87,0.75,4.54
		c0.5,0.68,1.13,1.01,1.9,1.01c0.59,0,1.1-0.1,1.54-0.31c0.44-0.21,0.78-0.43,1.01-0.66c0.65-0.65,1.29-0.62,1.94,0.09
		c0.29,0.3,0.41,0.62,0.35,0.97c-0.06,0.35-0.21,0.71-0.44,1.06c-0.82,1.35-1.84,2.49-3.04,3.4c-1.21,0.91-2.66,1.37-4.37,1.37
		c-2.18,0-4.01-0.56-5.52-1.68c-1.5-1.12-2.54-2.85-3.13-5.21c-1.06,1.94-2.57,3.65-4.54,5.12
		C498.3,77.98,495.43,78.72,491.67,78.72z M496.08,73.42c1.71,0,3.18-0.49,4.41-1.46s2.18-2.13,2.82-3.49
		c0.65-1.35,0.97-2.65,0.97-3.88v-9.44c-4.65-0.12-8.38,0.62-11.21,2.21c-2.82,1.59-4.24,4.38-4.24,8.38c0,2.29,0.44,3.99,1.32,5.07
		c0.88,1.09,1.9,1.79,3.04,2.12C494.36,73.26,495.31,73.42,496.08,73.42z"/>
	<path d="M526.44,77.66c-0.94,0-1.41-0.5-1.41-1.5c0-0.94,0.47-1.41,1.41-1.41c2.24,0,3.74-0.44,4.5-1.32
		c0.76-0.88,1.15-2.38,1.15-4.5V21.44c0-1.65-0.21-2.72-0.62-3.22c-0.41-0.5-1.03-0.84-1.85-1.01c-0.41-0.12-1.06-0.22-1.94-0.31
		c-0.88-0.09-1.53-0.16-1.94-0.22c-0.82-0.12-1.24-0.59-1.24-1.41c0-0.88,0.44-1.38,1.32-1.5c0.18,0,0.91-0.01,2.21-0.04
		c1.29-0.03,2.75-0.04,4.37-0.04c1.62,0,3.1-0.01,4.46-0.04c1.35-0.03,2.21-0.04,2.56-0.04c1.47,0,2.21,0.77,2.21,2.29v52.86
		c0,2.18,0.38,3.72,1.15,4.63c0.76,0.91,2.21,1.37,4.32,1.37c0.88,0,1.32,0.47,1.32,1.41c0,1-0.44,1.5-1.32,1.5
		c-0.41,0-1.25-0.03-2.52-0.09c-1.27-0.06-2.62-0.1-4.06-0.13c-1.44-0.03-2.69-0.04-3.75-0.04c-1,0-2.24,0.01-3.71,0.04
		c-1.47,0.03-2.84,0.07-4.1,0.13C527.68,77.63,526.85,77.66,526.44,77.66z"/>
	<path d="M555.64,77.66c-0.94,0-1.41-0.5-1.41-1.5c0-0.94,0.47-1.41,1.41-1.41c2.24,0,3.74-0.44,4.5-1.32
		c0.76-0.88,1.15-2.38,1.15-4.5V21.44c0-1.65-0.21-2.72-0.62-3.22c-0.41-0.5-1.03-0.84-1.85-1.01c-0.41-0.12-1.06-0.22-1.94-0.31
		c-0.88-0.09-1.53-0.16-1.94-0.22c-0.82-0.12-1.24-0.59-1.24-1.41c0-0.88,0.44-1.38,1.32-1.5c0.18,0,0.91-0.01,2.21-0.04
		c1.29-0.03,2.75-0.04,4.37-0.04c1.62,0,3.1-0.01,4.46-0.04c1.35-0.03,2.21-0.04,2.56-0.04c1.47,0,2.21,0.77,2.21,2.29v52.86
		c0,2.18,0.38,3.72,1.15,4.63c0.76,0.91,2.21,1.37,4.32,1.37c0.88,0,1.32,0.47,1.32,1.41c0,1-0.44,1.5-1.32,1.5
		c-0.41,0-1.25-0.03-2.52-0.09c-1.27-0.06-2.62-0.1-4.06-0.13c-1.44-0.03-2.69-0.04-3.75-0.04c-1,0-2.24,0.01-3.71,0.04
		c-1.47,0.03-2.84,0.07-4.1,0.13C556.89,77.63,556.06,77.66,555.64,77.66z"/>
	<path d="M588.65,96.1c-2.53,0-4.56-0.59-6.09-1.77c-1.53-1.18-2.29-2.77-2.29-4.77c0-1.59,0.51-2.94,1.54-4.06
		c1.03-1.12,2.4-1.68,4.1-1.68c1.53,0,2.66,0.35,3.4,1.06c0.73,0.71,1.26,1.51,1.59,2.43c0.32,0.91,0.65,1.72,0.97,2.43
		c0.32,0.71,0.78,1.06,1.37,1.06c1.06,0,2.09-0.59,3.09-1.77c1-1.18,1.93-2.59,2.78-4.24c0.85-1.65,1.56-3.16,2.12-4.54
		c0.56-1.38,0.93-2.25,1.1-2.6c-0.94-2.24-2.02-4.75-3.22-7.54c-1.21-2.79-2.43-5.62-3.66-8.47c-1.24-2.85-2.38-5.53-3.44-8.03
		c-1.06-2.5-1.96-4.62-2.69-6.35c-0.74-1.74-1.22-2.84-1.46-3.31c-0.71-1.71-1.44-2.99-2.21-3.84c-0.76-0.85-1.74-1.28-2.91-1.28
		c-0.88,0-1.32-0.5-1.32-1.5c0-0.94,0.44-1.41,1.32-1.41c0.65,0,1.82,0.04,3.53,0.13c1.71,0.09,3.32,0.13,4.85,0.13
		c1.06,0,2.21-0.03,3.44-0.09c1.24-0.06,2.4-0.1,3.49-0.13c1.09-0.03,1.84-0.04,2.25-0.04c0.88,0,1.32,0.47,1.32,1.41
		c0,1-0.44,1.5-1.32,1.5c-1.41,0-2.35,0.32-2.82,0.97c-0.47,0.65-0.56,1.38-0.26,2.21c0.18,0.41,0.6,1.46,1.28,3.13
		c0.68,1.68,1.47,3.62,2.38,5.82c0.91,2.21,1.82,4.41,2.74,6.62c0.91,2.21,1.71,4.1,2.38,5.69c0.68,1.59,1.07,2.53,1.19,2.82
		c0.12-0.23,0.41-0.97,0.88-2.21s1.04-2.72,1.72-4.46c0.67-1.73,1.37-3.51,2.07-5.34c0.71-1.82,1.32-3.44,1.85-4.85
		s0.88-2.38,1.06-2.91c0.76-2.41,0.75-4.26-0.04-5.56c-0.79-1.29-2.31-1.94-4.54-1.94c-0.88,0-1.32-0.5-1.32-1.5
		c0-0.94,0.44-1.41,1.32-1.41c0.65,0,1.62,0.04,2.91,0.13c1.29,0.09,2.71,0.13,4.24,0.13c1.53,0,3.1-0.04,4.72-0.13
		c1.62-0.09,2.75-0.13,3.4-0.13c0.88,0,1.32,0.47,1.32,1.41c0,1-0.44,1.5-1.32,1.5c-1.41,0-2.79,0.57-4.15,1.72
		s-2.56,3.13-3.62,5.96c-0.18,0.47-0.62,1.62-1.32,3.44c-0.71,1.82-1.54,3.97-2.52,6.44c-0.97,2.47-1.94,4.97-2.91,7.5
		c-0.97,2.53-1.84,4.77-2.6,6.71c-0.77,1.94-1.29,3.24-1.59,3.88c-1.71,4.06-3.4,7.72-5.07,10.99c-1.68,3.27-3.54,5.85-5.6,7.77
		C594,95.15,591.53,96.1,588.65,96.1z"/>
	<path d="M11.95,135.16c-0.35,0-0.53-0.18-0.53-0.53c0-0.35,0.18-0.53,0.53-0.53c1.31,0,2.19-0.2,2.64-0.59
		c0.45-0.39,0.68-0.96,0.68-1.72v-20.74c0-0.76-0.22-1.32-0.66-1.7c-0.44-0.38-1.35-0.57-2.74-0.57c-0.33,0-0.49-0.18-0.49-0.53
		c0-0.35,0.16-0.53,0.49-0.53c0.23,0,0.88,0.02,1.95,0.06c1.07,0.04,2.32,0.06,3.76,0.06c2.64,0,4.8-0.02,6.46-0.06
		c1.66-0.04,2.76-0.06,3.29-0.06c1.49,0,2.78,0.26,3.87,0.79c1.1,0.53,1.95,1.25,2.55,2.17s0.91,1.97,0.91,3.16
		c0,1.46-0.33,2.65-1,3.57c-0.67,0.92-1.51,1.64-2.51,2.17c-1.01,0.53-2,0.94-2.99,1.25c0.63,0,1.37,0.11,2.23,0.34
		c0.86,0.23,1.7,0.59,2.53,1.1s1.52,1.19,2.06,2.06c0.54,0.87,0.81,1.96,0.81,3.27c0,1.66-0.42,3.05-1.25,4.17
		c-0.83,1.12-1.98,1.96-3.46,2.53c-1.47,0.57-3.19,0.85-5.16,0.85c-0.28,0-0.58-0.01-0.91-0.02s-0.77-0.02-1.34-0.02
		c-0.57,0-1.34-0.01-2.32-0.02s-2.27-0.02-3.85-0.02c-1.46,0-2.69,0.01-3.68,0.04C12.83,135.14,12.2,135.16,11.95,135.16z
		 M19.89,120.16h4.53c3.45,0,5.18-2.05,5.18-6.16c0-1.49-0.35-2.71-1.06-3.67c-0.71-0.96-1.94-1.44-3.7-1.44h-4.95V120.16z
		 M20.72,134.02h3.97c2.02,0,3.5-0.6,4.44-1.81c0.95-1.21,1.42-2.75,1.42-4.61c0-1.74-0.5-3.19-1.49-4.36
		c-1-1.17-2.56-1.76-4.7-1.76h-4.46v11.75c0,0.23,0.06,0.42,0.17,0.57S20.39,134.02,20.72,134.02z"/>
	<path d="M41.99,135.16c-0.33,0-0.49-0.16-0.49-0.49c0-0.4,0.16-0.6,0.49-0.6c0.88,0,1.57-0.16,2.08-0.47
		c0.5-0.31,0.96-0.91,1.36-1.79c0.2-0.4,0.5-1.08,0.89-2.04c0.39-0.96,0.84-2.1,1.36-3.44c0.52-1.33,1.06-2.76,1.64-4.27
		c0.58-1.51,1.16-3.02,1.74-4.53c0.58-1.51,1.11-2.92,1.61-4.21c0.49-1.3,0.91-2.41,1.25-3.34c0.34-0.93,0.57-1.56,0.7-1.89
		c0.12-0.33,0.27-0.54,0.43-0.64c0.16-0.1,0.45-0.15,0.85-0.15s0.69,0.05,0.87,0.15c0.18,0.1,0.33,0.32,0.45,0.64
		c0.2,0.5,0.52,1.32,0.96,2.46c0.44,1.13,0.95,2.44,1.53,3.93c0.58,1.49,1.18,3.04,1.81,4.67s1.24,3.21,1.83,4.74
		c0.59,1.54,1.13,2.93,1.61,4.18c0.48,1.25,0.86,2.21,1.13,2.89c0.45,1.16,0.94,1.97,1.46,2.44c0.52,0.47,1.01,0.7,1.49,0.7
		c0.33,0,0.49,0.2,0.49,0.6c0,0.33-0.16,0.49-0.49,0.49c-0.25,0-0.77-0.01-1.55-0.02c-0.78-0.01-1.83-0.02-3.14-0.02
		c-1.08,0-2.12,0.01-3.1,0.02s-1.6,0.02-1.85,0.02c-0.33,0-0.49-0.16-0.49-0.49c0-0.4,0.16-0.6,0.49-0.6c0.81,0,1.37-0.13,1.68-0.4
		c0.32-0.26,0.47-0.58,0.47-0.95c0-0.36-0.06-0.67-0.19-0.93c-0.03-0.05-0.11-0.3-0.26-0.75c-0.15-0.45-0.33-1-0.55-1.64
		c-0.21-0.64-0.43-1.28-0.66-1.93c-0.23-0.64-0.42-1.19-0.57-1.64h-10.2c-0.15,0.5-0.35,1.14-0.58,1.91
		c-0.24,0.77-0.45,1.52-0.64,2.25c-0.19,0.73-0.28,1.32-0.28,1.78c0,0.93,0.23,1.55,0.7,1.85c0.47,0.3,1.12,0.45,1.95,0.45
		c0.33,0,0.49,0.2,0.49,0.6c0,0.33-0.16,0.49-0.49,0.49c-0.25,0-0.72-0.01-1.42-0.02c-0.69-0.01-1.59-0.02-2.7-0.02
		c-0.98,0-1.85,0.01-2.61,0.02S42.27,135.16,41.99,135.16z M49.62,124.58h9.22l-4.42-12.47L49.62,124.58z"/>
	<path d="M94.85,135.46c-0.98,0-1.78-0.25-2.4-0.74s-1.12-1.14-1.51-1.95c-0.39-0.81-0.71-1.69-0.96-2.64
		c-0.25-0.96-0.49-1.91-0.7-2.87c-0.21-0.96-0.47-1.84-0.77-2.64c-0.3-0.81-0.7-1.46-1.19-1.95s-1.14-0.74-1.95-0.74h-3.44v9.82
		c0,0.5,0.07,0.93,0.21,1.28c0.14,0.35,0.43,0.61,0.89,0.77c0.45,0.16,1.15,0.25,2.08,0.25c0.33,0,0.49,0.19,0.49,0.57
		c0,0.13-0.04,0.25-0.13,0.36s-0.21,0.17-0.36,0.17c-0.25,0-0.88-0.02-1.87-0.06c-1-0.04-2.19-0.06-3.57-0.06
		c-1.31,0-2.44,0.02-3.38,0.06s-1.56,0.06-1.83,0.06c-0.33,0-0.49-0.18-0.49-0.53c0-0.38,0.16-0.57,0.49-0.57
		c0.93,0,1.6-0.09,2-0.26c0.4-0.18,0.66-0.43,0.76-0.77s0.15-0.76,0.15-1.27v-20.71c0-0.45-0.06-0.84-0.17-1.17
		s-0.37-0.59-0.76-0.77c-0.39-0.19-1.03-0.28-1.91-0.28c-0.18,0-0.31-0.06-0.4-0.17c-0.09-0.11-0.13-0.23-0.13-0.36
		c0-0.38,0.18-0.57,0.53-0.57c0.18,0,0.75,0.02,1.72,0.06c0.97,0.04,2.11,0.06,3.42,0.06c2.09,0,3.83-0.02,5.21-0.06
		c1.38-0.04,2.53-0.06,3.44-0.06c1.54,0,2.94,0.23,4.21,0.7c1.27,0.47,2.3,1.2,3.08,2.21s1.17,2.33,1.17,3.97
		c0,1.29-0.3,2.35-0.89,3.19s-1.32,1.51-2.19,1.98c-0.87,0.48-1.73,0.84-2.59,1.1c-0.86,0.25-1.56,0.44-2.12,0.57
		c1.13,0.15,2.05,0.54,2.74,1.15s1.24,1.36,1.64,2.23c0.4,0.87,0.72,1.78,0.96,2.72c0.24,0.94,0.46,1.82,0.66,2.63
		c0.2,0.81,0.46,1.47,0.77,1.98c0.32,0.52,0.75,0.77,1.3,0.77c0.23,0,0.45-0.06,0.68-0.17s0.47-0.31,0.72-0.59
		c0.13-0.15,0.24-0.25,0.34-0.3s0.23-0.01,0.38,0.11c0.13,0.1,0.18,0.21,0.17,0.34s-0.06,0.28-0.13,0.45
		c-0.25,0.55-0.76,1.14-1.53,1.76C96.94,135.15,95.98,135.46,94.85,135.46z M81.93,120.69h4.04c1.86,0,3.29-0.5,4.27-1.51
		c0.98-1.01,1.47-2.53,1.47-4.57c0-1.69-0.41-3.06-1.23-4.12s-2.06-1.59-3.72-1.59h-4.84V120.69z"/>
	<path d="M125.19,135.46c-0.98,0-1.78-0.25-2.4-0.74s-1.12-1.14-1.51-1.95c-0.39-0.81-0.71-1.69-0.96-2.64
		c-0.25-0.96-0.49-1.91-0.7-2.87c-0.21-0.96-0.47-1.84-0.77-2.64c-0.3-0.81-0.7-1.46-1.19-1.95s-1.14-0.74-1.95-0.74h-3.44v9.82
		c0,0.5,0.07,0.93,0.21,1.28c0.14,0.35,0.43,0.61,0.89,0.77c0.45,0.16,1.15,0.25,2.08,0.25c0.33,0,0.49,0.19,0.49,0.57
		c0,0.13-0.04,0.25-0.13,0.36s-0.21,0.17-0.36,0.17c-0.25,0-0.88-0.02-1.87-0.06c-1-0.04-2.19-0.06-3.57-0.06
		c-1.31,0-2.44,0.02-3.38,0.06s-1.56,0.06-1.83,0.06c-0.33,0-0.49-0.18-0.49-0.53c0-0.38,0.16-0.57,0.49-0.57
		c0.93,0,1.6-0.09,2-0.26c0.4-0.18,0.66-0.43,0.76-0.77s0.15-0.76,0.15-1.27v-20.71c0-0.45-0.06-0.84-0.17-1.17
		s-0.37-0.59-0.76-0.77c-0.39-0.19-1.03-0.28-1.91-0.28c-0.18,0-0.31-0.06-0.4-0.17c-0.09-0.11-0.13-0.23-0.13-0.36
		c0-0.38,0.18-0.57,0.53-0.57c0.18,0,0.75,0.02,1.72,0.06c0.97,0.04,2.11,0.06,3.42,0.06c2.09,0,3.83-0.02,5.21-0.06
		c1.38-0.04,2.53-0.06,3.44-0.06c1.54,0,2.94,0.23,4.21,0.7c1.27,0.47,2.3,1.2,3.08,2.21s1.17,2.33,1.17,3.97
		c0,1.29-0.3,2.35-0.89,3.19s-1.32,1.51-2.19,1.98c-0.87,0.48-1.73,0.84-2.59,1.1c-0.86,0.25-1.56,0.44-2.12,0.57
		c1.13,0.15,2.05,0.54,2.74,1.15s1.24,1.36,1.64,2.23c0.4,0.87,0.72,1.78,0.96,2.72c0.24,0.94,0.46,1.82,0.66,2.63
		c0.2,0.81,0.46,1.47,0.77,1.98c0.32,0.52,0.75,0.77,1.3,0.77c0.23,0,0.45-0.06,0.68-0.17s0.47-0.31,0.72-0.59
		c0.13-0.15,0.24-0.25,0.34-0.3s0.23-0.01,0.38,0.11c0.13,0.1,0.18,0.21,0.17,0.34s-0.06,0.28-0.13,0.45
		c-0.25,0.55-0.76,1.14-1.53,1.76C127.28,135.15,126.33,135.46,125.19,135.46z M112.27,120.69h4.04c1.86,0,3.29-0.5,4.27-1.51
		c0.98-1.01,1.47-2.53,1.47-4.57c0-1.69-0.41-3.06-1.23-4.12s-2.06-1.59-3.72-1.59h-4.84V120.69z"/>
	<path d="M135.43,135.16c-0.33,0-0.49-0.2-0.49-0.6c0-0.33,0.16-0.49,0.49-0.49c1.31,0,2.25-0.14,2.83-0.42
		c0.58-0.28,0.87-0.87,0.87-1.78v-20.93c0-0.83-0.27-1.4-0.81-1.7c-0.54-0.3-1.51-0.45-2.89-0.45c-0.33,0-0.49-0.18-0.49-0.53
		c0-0.35,0.16-0.53,0.49-0.53c0.43,0,0.99,0.01,1.68,0.04c0.69,0.03,1.43,0.04,2.21,0.06c0.78,0.01,1.5,0.02,2.15,0.02
		c0.63,0,1.34-0.01,2.13-0.02s1.55-0.03,2.27-0.06c0.72-0.02,1.28-0.04,1.68-0.04c0.38,0,0.57,0.18,0.57,0.53
		c0,0.35-0.19,0.53-0.57,0.53c-1.33,0-2.29,0.15-2.85,0.45c-0.57,0.3-0.85,0.87-0.85,1.7v20.93c0,0.91,0.3,1.5,0.91,1.78
		c0.6,0.28,1.54,0.42,2.8,0.42c0.38,0,0.57,0.16,0.57,0.49c0,0.4-0.19,0.6-0.57,0.6c-0.4,0-0.96-0.01-1.68-0.04
		c-0.72-0.02-1.47-0.05-2.27-0.08c-0.79-0.02-1.51-0.04-2.13-0.04c-0.66,0-1.37,0.01-2.15,0.04c-0.78,0.03-1.52,0.05-2.21,0.08
		C136.42,135.14,135.86,135.16,135.43,135.16z"/>
	<path d="M165.28,135.61c-1.36,0-2.61-0.16-3.74-0.49s-2.09-0.69-2.87-1.08c-0.78-0.39-1.35-0.66-1.7-0.81
		c-0.33,0.25-0.61,0.48-0.85,0.68c-0.24,0.2-0.54,0.48-0.89,0.83c-0.25,0.25-0.49,0.32-0.72,0.21c-0.23-0.11-0.34-0.31-0.34-0.59
		v-7.37c0-0.3,0.17-0.48,0.51-0.53c0.34-0.05,0.55,0.04,0.62,0.26c0.48,1.41,1.21,2.67,2.19,3.78s2.16,1.97,3.53,2.59
		c1.37,0.62,2.85,0.93,4.44,0.93c1.31,0,2.37-0.26,3.19-0.79c0.82-0.53,1.43-1.2,1.83-2.02s0.6-1.63,0.6-2.44
		c0-1.08-0.3-1.96-0.91-2.63c-0.6-0.67-1.4-1.21-2.38-1.62c-0.98-0.42-2.07-0.77-3.27-1.08c-1.2-0.3-2.39-0.63-3.57-0.98
		c-1.18-0.35-2.27-0.81-3.25-1.38c-0.98-0.57-1.78-1.32-2.38-2.27c-0.6-0.95-0.91-2.15-0.91-3.61c0-1.74,0.42-3.19,1.27-4.36
		c0.84-1.17,1.97-2.06,3.38-2.66s2.93-0.91,4.57-0.91c1.06,0,2.07,0.13,3.04,0.38c0.97,0.25,1.84,0.55,2.63,0.89
		c0.78,0.34,1.38,0.65,1.81,0.93c0.3-0.28,0.56-0.51,0.77-0.7c0.21-0.19,0.38-0.33,0.51-0.43c0.25-0.2,0.48-0.25,0.68-0.13
		c0.2,0.11,0.3,0.33,0.3,0.66v6.46c0,0.33-0.16,0.53-0.47,0.6c-0.32,0.08-0.54-0.05-0.66-0.38c-0.55-1.23-1.25-2.38-2.1-3.44
		c-0.84-1.06-1.81-1.91-2.91-2.57s-2.3-0.98-3.61-0.98c-1.08,0-2.04,0.23-2.87,0.7c-0.83,0.47-1.49,1.08-1.96,1.83
		s-0.72,1.6-0.72,2.53c0,1.06,0.31,1.9,0.93,2.53s1.43,1.13,2.44,1.51c1.01,0.38,2.12,0.71,3.34,0.98c1.22,0.28,2.44,0.59,3.65,0.93
		c1.21,0.34,2.32,0.8,3.33,1.38c1.01,0.58,1.82,1.35,2.44,2.32c0.62,0.97,0.93,2.24,0.93,3.8c0,1.79-0.43,3.33-1.28,4.61
		c-0.86,1.29-2.03,2.26-3.51,2.93C168.86,135.28,167.17,135.61,165.28,135.61z"/>
	<path d="M186.97,135.16c-0.33,0-0.49-0.18-0.49-0.53c0-0.38,0.16-0.57,0.49-0.57c1.41,0,2.35-0.2,2.83-0.6
		c0.48-0.4,0.72-0.97,0.72-1.7V108.9h-3.06c-0.96,0-1.78,0.22-2.46,0.66c-0.68,0.44-1.25,1-1.7,1.66c-0.45,0.67-0.82,1.33-1.1,1.98
		s-0.49,1.21-0.64,1.66c-0.05,0.15-0.13,0.24-0.23,0.26c-0.1,0.03-0.24,0.03-0.42,0c-0.03,0-0.05,0-0.08,0
		c-0.15-0.02-0.24-0.08-0.26-0.17c-0.03-0.09-0.04-0.18-0.04-0.28s0.01-0.43,0.04-0.98c0.02-0.55,0.06-1.18,0.09-1.89
		c0.04-0.71,0.07-1.36,0.09-1.96c0.02-0.6,0.04-1.02,0.04-1.25c0-0.58,0.33-0.87,0.98-0.87c0.13,0,0.67,0.01,1.62,0.04
		c0.96,0.03,2.25,0.04,3.87,0.06c1.62,0.01,3.5,0.02,5.61,0.02c2.12,0,3.99-0.01,5.61-0.02s2.93-0.03,3.91-0.06
		c0.98-0.02,1.54-0.04,1.66-0.04c0.6,0,0.92,0.3,0.95,0.91c0,0.18,0.02,0.56,0.06,1.15c0.04,0.59,0.07,1.25,0.09,1.96
		s0.05,1.36,0.08,1.93c0.02,0.57,0.04,0.9,0.04,1c0,0.15-0.01,0.26-0.04,0.32c-0.03,0.06-0.14,0.11-0.34,0.13
		c-0.03,0-0.06,0.01-0.11,0.04c-0.1,0-0.19-0.01-0.26-0.02c-0.08-0.01-0.17-0.12-0.26-0.32c-0.2-0.43-0.45-0.97-0.74-1.62
		c-0.29-0.66-0.66-1.31-1.1-1.96c-0.44-0.66-0.99-1.21-1.64-1.66c-0.66-0.45-1.46-0.68-2.42-0.68h-3.33v22.86
		c0,0.43,0.07,0.82,0.21,1.17c0.14,0.35,0.45,0.63,0.94,0.83c0.49,0.2,1.25,0.3,2.29,0.3c0.38,0,0.57,0.19,0.57,0.57
		c0,0.35-0.19,0.53-0.57,0.53c-0.25,0-0.88-0.02-1.87-0.06s-2.27-0.06-3.83-0.06s-2.85,0.02-3.87,0.06
		C187.9,135.14,187.25,135.16,186.97,135.16z"/>
	<path d="M210.93,135.16c-0.33,0-0.49-0.2-0.49-0.6c0-0.33,0.16-0.49,0.49-0.49c1.41,0,2.36-0.18,2.85-0.53
		c0.49-0.35,0.74-0.94,0.74-1.78v-20.71c0-0.76-0.23-1.32-0.68-1.7s-1.36-0.57-2.72-0.57c-0.33,0-0.49-0.19-0.49-0.57
		c0-0.33,0.16-0.49,0.49-0.49c0.2,0,1.17,0.01,2.89,0.04c1.73,0.03,4.26,0.04,7.61,0.04c3.17,0,5.58-0.01,7.22-0.04
		c1.64-0.02,2.57-0.04,2.8-0.04c0.58,0,0.88,0.29,0.91,0.87c0.05,0.23,0.09,0.6,0.11,1.12c0.02,0.52,0.05,1.06,0.08,1.64
		c0.02,0.58,0.04,1.1,0.06,1.55c0.01,0.45,0.02,0.74,0.02,0.87c0,0.1-0.03,0.21-0.08,0.32c-0.05,0.11-0.16,0.17-0.34,0.17
		c-0.18,0-0.31-0.02-0.4-0.06c-0.09-0.04-0.17-0.14-0.25-0.32c-0.3-0.68-0.69-1.4-1.15-2.17c-0.47-0.77-1.08-1.43-1.85-1.98
		c-0.77-0.55-1.77-0.83-3-0.83h-6.65v11.64h2.42c1.06,0,1.86-0.23,2.42-0.68c0.55-0.45,0.96-0.98,1.23-1.59
		c0.26-0.61,0.49-1.12,0.66-1.55c0.08-0.2,0.14-0.35,0.21-0.43c0.06-0.09,0.2-0.13,0.4-0.13c0.18,0,0.3,0.06,0.36,0.19
		c0.06,0.13,0.09,0.25,0.09,0.38c0,0.2-0.01,0.56-0.02,1.08c-0.01,0.52-0.03,1.08-0.04,1.68c-0.01,0.6-0.02,1.16-0.02,1.66
		c0,0.48,0.01,1.05,0.02,1.72c0.01,0.67,0.02,1.27,0.04,1.81c0.01,0.54,0.02,0.9,0.02,1.08c0,0.38-0.15,0.57-0.45,0.57
		c-0.28,0-0.47-0.16-0.57-0.49c-0.18-0.48-0.4-1.04-0.68-1.68c-0.28-0.64-0.69-1.21-1.25-1.7c-0.55-0.49-1.36-0.74-2.42-0.74h-2.42
		v11.49c0,0.48,0.25,0.72,0.76,0.72h5.1c1.21,0,2.23-0.22,3.06-0.66c0.83-0.44,1.52-1,2.06-1.66c0.54-0.67,0.96-1.33,1.27-2
		c0.3-0.67,0.53-1.23,0.68-1.68c0.08-0.23,0.16-0.35,0.25-0.38c0.09-0.02,0.22-0.02,0.4,0h0.04c0.2,0.03,0.32,0.09,0.34,0.19
		c0.02,0.1,0.04,0.21,0.04,0.34c0,0.1-0.01,0.42-0.02,0.94s-0.03,1.14-0.04,1.83s-0.03,1.33-0.04,1.93s-0.02,1-0.02,1.23
		c0,0.33-0.09,0.6-0.28,0.83c-0.19,0.23-0.46,0.34-0.81,0.34c-0.18,0-0.57-0.01-1.17-0.04c-0.6-0.02-1.6-0.04-2.99-0.06
		c-1.39-0.01-3.33-0.02-5.82-0.02c-3.07,0-5.6,0.02-7.58,0.06S211.2,135.16,210.93,135.16z"/>
	<path d="M259.63,135.46c-0.98,0-1.78-0.25-2.4-0.74s-1.12-1.14-1.51-1.95c-0.39-0.81-0.71-1.69-0.96-2.64
		c-0.25-0.96-0.49-1.91-0.7-2.87c-0.21-0.96-0.47-1.84-0.77-2.64c-0.3-0.81-0.7-1.46-1.19-1.95s-1.14-0.74-1.95-0.74h-3.44v9.82
		c0,0.5,0.07,0.93,0.21,1.28c0.14,0.35,0.43,0.61,0.89,0.77c0.45,0.16,1.15,0.25,2.08,0.25c0.33,0,0.49,0.19,0.49,0.57
		c0,0.13-0.04,0.25-0.13,0.36s-0.21,0.17-0.36,0.17c-0.25,0-0.88-0.02-1.87-0.06c-1-0.04-2.19-0.06-3.57-0.06
		c-1.31,0-2.44,0.02-3.38,0.06s-1.56,0.06-1.83,0.06c-0.33,0-0.49-0.18-0.49-0.53c0-0.38,0.16-0.57,0.49-0.57
		c0.93,0,1.6-0.09,2-0.26c0.4-0.18,0.66-0.43,0.76-0.77s0.15-0.76,0.15-1.27v-20.71c0-0.45-0.06-0.84-0.17-1.17
		s-0.37-0.59-0.76-0.77c-0.39-0.19-1.03-0.28-1.91-0.28c-0.18,0-0.31-0.06-0.4-0.17c-0.09-0.11-0.13-0.23-0.13-0.36
		c0-0.38,0.18-0.57,0.53-0.57c0.18,0,0.75,0.02,1.72,0.06c0.97,0.04,2.11,0.06,3.42,0.06c2.09,0,3.83-0.02,5.21-0.06
		c1.38-0.04,2.53-0.06,3.44-0.06c1.54,0,2.94,0.23,4.21,0.7c1.27,0.47,2.3,1.2,3.08,2.21s1.17,2.33,1.17,3.97
		c0,1.29-0.3,2.35-0.89,3.19s-1.32,1.51-2.19,1.98c-0.87,0.48-1.73,0.84-2.59,1.1c-0.86,0.25-1.56,0.44-2.12,0.57
		c1.13,0.15,2.05,0.54,2.74,1.15c0.69,0.62,1.24,1.36,1.64,2.23c0.4,0.87,0.72,1.78,0.96,2.72c0.24,0.94,0.46,1.82,0.66,2.63
		c0.2,0.81,0.46,1.47,0.77,1.98c0.32,0.52,0.75,0.77,1.3,0.77c0.23,0,0.45-0.06,0.68-0.17s0.47-0.31,0.72-0.59
		c0.13-0.15,0.24-0.25,0.34-0.3s0.23-0.01,0.38,0.11c0.13,0.1,0.18,0.21,0.17,0.34s-0.06,0.28-0.13,0.45
		c-0.25,0.55-0.76,1.14-1.53,1.76C261.72,135.15,260.77,135.46,259.63,135.46z M246.71,120.69h4.04c1.86,0,3.29-0.5,4.27-1.51
		c0.98-1.01,1.47-2.53,1.47-4.57c0-1.69-0.41-3.06-1.23-4.12c-0.82-1.06-2.06-1.59-3.72-1.59h-4.84V120.69z"/>
</g>
<g id="Layer_2">
</g>
</svg>
